#!OML:ASF F:\VICON\USERDATA\INSTALL\Justin_Nancy\Justin_Nancy.ASF
:FULLY-SPECIFIED
:DEGREES
351
root -1.236 17.643 13.0217 -1.07248 42.0711 -1.7113
lowerback 7.13145 -0.757655 0.0686388
upperback 0.252188 -0.854794 3.29093
thorax -3.69142 -0.389822 3.46087
lowerneck -16.6415 -3.74966 -9.71715
upperneck 24.9016 -3.51644 4.14858
head 11.0804 -1.96425 2.64754
rclavicle 1.02623e-013 -7.95139e-016
rhumerus -37.0354 -18.3115 -73.2681
rradius 28.4789
rwrist 8.17217
rhand -13.6904 14.2828
rfingers 7.12502
rthumb 12.4276 -15.3277
lclavicle 1.02623e-013 -7.95139e-016
lhumerus -31.706 9.97102 83.5659
lradius 29.1071
lwrist -10.466
lhand -13.1994 16.5006
lfingers 7.12502
lthumb 12.9009 46.0819
rfemur -11.3837 2.64885 26.4361
rtibia 17.8885
rfoot -3.71363 -2.3589
rtoes 14.8187
lfemur -13.4691 1.26639 -17.2761
ltibia 63.4674
lfoot 14.1415 -16.1742
ltoes 1.69268
352
root -1.15428 17.6593 13.1324 -0.993566 41.8999 -1.59535
lowerback 7.07738 -0.636038 0.0599311
upperback 0.302241 -0.700141 3.19835
thorax -3.6192 -0.31487 3.35161
lowerneck -16.7689 -3.77371 -9.87993
upperneck 25.1078 -3.57146 4.4389
head 11.1959 -1.97026 2.77622
rclavicle 5.59579e-014 6.36111e-015
rhumerus -36.7256 -18.4408 -73.2973
rradius 28.4389
rwrist 8.35084
rhand -13.7735 14.286
rfingers 7.12502
rthumb 12.3475 -15.3294
lclavicle 5.59579e-014 6.36111e-015
lhumerus -31.9169 10.4531 83.3162
lradius 28.8268
lwrist -10.9026
lhand -12.9055 16.2907
lfingers 7.12502
lthumb 13.1843 45.8539
rfemur -10.6425 2.90723 26.4731
rtibia 17.6102
rfoot -4.03757 -2.70834
rtoes 11.9162
lfemur -14.7612 1.66941 -17.3187
ltibia 64.7508
lfoot 12.59 -15.4671
ltoes 1.41482
353
root -1.0706 17.6681 13.2359 -0.675235 41.8401 -1.27106
lowerback 6.90457 -0.595399 -0.108099
upperback 0.322125 -0.668639 3.08841
thorax -3.50266 -0.299199 3.32525
lowerneck -16.6528 -3.71042 -9.7886
upperneck 25.0848 -3.51644 4.4292
head 11.1569 -1.93816 2.76625
rclavicle -4.00054e-014 -2.78299e-014
rhumerus -36.4277 -18.2828 -73.4725
rradius 28.5966
rwrist 8.28026
rhand -13.9937 14.3605
rfingers 7.12502
rthumb 12.1352 -15.2675
lclavicle -4.00054e-014 -2.78299e-014
lhumerus -31.8991 11.3137 83.1265
lradius 28.2274
lwrist -10.9698
lhand -14.7629 19.7159
lfingers 7.12502
lthumb 11.3934 49.3863
rfemur -9.96547 2.87213 26.3296
rtibia 17.2111
rfoot -4.19346 -2.96442
rtoes 10.2278
lfemur -16.1684 1.70342 -17.6766
ltibia 65.8394
lfoot 11.031 -14.5444
ltoes 0.523496
354
root -0.990703 17.6805 13.3511 -0.536183 41.6802 -0.896927
lowerback 6.96942 -0.504027 -0.470389
upperback 0.398706 -0.579624 3.0221
thorax -3.46181 -0.251111 3.45253
lowerneck -16.5446 -3.65874 -9.4599
upperneck 24.9884 -3.46143 4.118
head 11.0819 -1.91945 2.6038
rclavicle -2.18663e-014 -1.59028e-014
rhumerus -36.0518 -18.0607 -73.6344
rradius 28.712
rwrist 8.0268
rhand -13.6996 14.2472
rfingers 7.12502
rthumb 12.4187 -15.3638
lclavicle -2.18663e-014 -1.59028e-014
lhumerus -32.0237 12.2463 82.8348
lradius 27.7539
lwrist -11.9367
lhand -18.3647 27.7761
lfingers 7.12502
lthumb 7.91839 57.6078
rfemur -9.13598 3.13085 26.1497
rtibia 16.8088
rfoot -4.3527 -3.43344
rtoes 13.3978
lfemur -17.1861 1.82408 -17.9904
ltibia 66.6802
lfoot 9.66232 -13.5296
ltoes 0.174011
355
root -0.91944 17.6961 13.4739 -0.89613 41.3444 -1.363
lowerback 6.94615 -0.337998 -0.237037
upperback 0.525594 -0.336577 3.15195
thorax -3.33336 -0.134196 3.43028
lowerneck -16.5907 -3.70239 -9.47182
upperneck 24.8836 -3.49847 4.05966
head 11.0542 -1.94296 2.57682
rclavicle -6.95746e-015 3.97569e-015
rhumerus -35.5665 -18.0782 -73.6674
rradius 28.7461
rwrist 7.92206
rhand -13.6027 14.047
rfingers 7.12502
rthumb 12.5122 -15.5584
lclavicle -6.95746e-015 3.97569e-015
lhumerus -31.935 13.782 82.4253
lradius 26.9974
lwrist -13.8583
lhand -13.8289 18.3109
lfingers 7.12502
lthumb 12.2941 47.9295
rfemur -8.52097 3.84118 26.699
rtibia 16.6264
rfoot -4.61084 -4.1086
rtoes 17.4007
lfemur -18.2693 2.3073 -17.4366
ltibia 67.4282
lfoot 8.68202 -12.6902
ltoes 1.44367
